<svg xmlns="http://www.w3.org/2000/svg" width="1320" height="362" viewBox="0 0 1320 362" font-family="Inter, system-ui, -apple-system, sans-serif">
<defs>
<clipPath id="tc"><rect x="0" y="24" width="248" height="248" rx="8"></rect></clipPath>
<linearGradient id="pg" gradientUnits="userSpaceOnUse" x1="52" y1="0" x2="1280" y2="0">
<stop offset="0" stop-color="#6d7782" stop-opacity="0.2"></stop>
<stop offset="1" stop-color="#6d7782" stop-opacity="1"></stop>
</linearGradient>
</defs>
<g transform="translate(0,0)"><text x="0" y="14" font-family="Inter, system-ui, -apple-system, sans-serif" font-size="12" font-weight="600" fill="#1b1b1b" style="font-variant:small-caps;letter-spacing:1.4px">country</text><text x="248" y="14" text-anchor="end" font-family="&#39;JetBrains Mono&#39;, ui-monospace, SFMono-Regular, monospace" font-size="10.5" fill="#6d6a65">≈ 1,500 km</text><g clip-path="url(#tc)"><g transform="translate(0,24) scale(2.48)"><rect x="0" y="0" width="100" height="100" fill="#fffefa"></rect>
<path d="M68,100 C70,82 60,74 66,58 C72,42 60,32 70,16 C74,9 80,4 86,0 L100,0 L100,100 Z" fill="rgba(47,111,130,0.09)"></path>
<path d="M68,100 C70,82 60,74 66,58 C72,42 60,32 70,16 C74,9 80,4 86,0" fill="none" stroke="rgba(27,27,27,0.22)" stroke-width="0.8"></path>
<path d="M0,40 C16,36 24,48 40,42 C52,38 56,30 50,18" fill="none" stroke="rgba(27,27,27,0.34)" stroke-width="0.6" stroke-dasharray="2 2.4" opacity="0.7"></path>
<path d="M30,100 C30,80 40,74 38,58 C36,46 28,44 30,30" fill="none" stroke="rgba(27,27,27,0.34)" stroke-width="0.6" stroke-dasharray="2 2.4" opacity="0.7"></path>
<circle cx="22" cy="26" r="1.1" fill="rgba(27,27,27,0.34)" opacity="0.55"></circle>
<circle cx="18" cy="64" r="1.1" fill="rgba(27,27,27,0.34)" opacity="0.55"></circle>
<circle cx="44" cy="74" r="1.1" fill="rgba(27,27,27,0.34)" opacity="0.55"></circle>
<circle cx="60" cy="40" r="1.1" fill="rgba(27,27,27,0.34)" opacity="0.55"></circle><circle cx="50" cy="50" r="1" fill="rgba(109,119,130,0.19)"></circle><circle cx="50" cy="50" r="1" fill="none" stroke="#6d7782" stroke-width="0.7" opacity="0.9"></circle><g stroke="#1b1b1b" stroke-width="0.9" stroke-linecap="round">
<line x1="50" y1="42.5" x2="50" y2="47"></line><line x1="50" y1="53" x2="50" y2="57.5"></line>
<line x1="42.5" y1="50" x2="47" y2="50"></line><line x1="53" y1="50" x2="57.5" y2="50"></line>
<circle cx="50" cy="50" r="1.5" fill="#1b1b1b" stroke="none"></circle></g></g></g><rect x="0" y="24" width="248" height="248" rx="8" fill="none" stroke="#e4e1dc"></rect><g transform="translate(0,289) scale(0.9375)"><circle cx="8" cy="8" r="6" fill="none" stroke="#6d7782" stroke-width="1.2"></circle><circle cx="8" cy="8" r="1.8" fill="#6d7782"></circle></g><text x="22" y="300" font-family="Inter, system-ui, -apple-system, sans-serif" font-size="14" fill="#1b1b1b">Pinpoints the metro.</text></g><g transform="translate(268,0)"><text x="0" y="14" font-family="Inter, system-ui, -apple-system, sans-serif" font-size="12" font-weight="600" fill="#1b1b1b" style="font-variant:small-caps;letter-spacing:1.4px">city</text><text x="248" y="14" text-anchor="end" font-family="&#39;JetBrains Mono&#39;, ui-monospace, SFMono-Regular, monospace" font-size="10.5" fill="#6d6a65">≈ 45 km</text><g clip-path="url(#tc)"><g transform="translate(0,24) scale(2.48)"><rect x="0" y="0" width="100" height="100" fill="#fffefa"></rect><path d="M-4,22 C20,30 30,52 46,54 C64,56 76,74 104,70" fill="none" stroke="rgba(47,111,130,0.20)" stroke-width="3.4" opacity="0.9"></path><circle cx="50" cy="50" r="29" fill="none" stroke="rgba(27,27,27,0.34)" stroke-width="0.9" opacity="0.85"></circle><line x1="50" y1="50" x2="98.86" y2="67.79" stroke="rgba(27,27,27,0.34)" stroke-width="0.7" opacity="0.7"></line><line x1="50" y1="50" x2="63.46" y2="100.23" stroke="rgba(27,27,27,0.34)" stroke-width="0.7" opacity="0.7"></line><line x1="50" y1="50" x2="16.58" y2="89.83" stroke="rgba(27,27,27,0.34)" stroke-width="0.7" opacity="0.7"></line><line x1="50" y1="50" x2="2.87" y2="28.02" stroke="rgba(27,27,27,0.34)" stroke-width="0.7" opacity="0.7"></line><line x1="50" y1="50" x2="76.00" y2="4.97" stroke="rgba(27,27,27,0.34)" stroke-width="0.7" opacity="0.7"></line><line x1="50" y1="50" x2="98.86" y2="32.21" stroke="rgba(27,27,27,0.34)" stroke-width="0.7" opacity="0.7"></line><rect x="30" y="30" width="13" height="10" rx="1.2" fill="rgba(27,27,27,0.045)"></rect><rect x="58" y="33" width="11" height="12" rx="1.2" fill="rgba(27,27,27,0.045)"></rect><rect x="34" y="60" width="14" height="9" rx="1.2" fill="rgba(27,27,27,0.045)"></rect><rect x="60" y="58" width="10" height="11" rx="1.2" fill="rgba(27,27,27,0.045)"></rect><circle cx="50" cy="50" r="33.33" fill="rgba(109,119,130,0.19)"></circle><circle cx="50" cy="50" r="33.33" fill="none" stroke="#6d7782" stroke-width="0.7" opacity="0.9"></circle><g stroke="#1b1b1b" stroke-width="0.9" stroke-linecap="round">
<line x1="50" y1="42.5" x2="50" y2="47"></line><line x1="50" y1="53" x2="50" y2="57.5"></line>
<line x1="42.5" y1="50" x2="47" y2="50"></line><line x1="53" y1="50" x2="57.5" y2="50"></line>
<circle cx="50" cy="50" r="1.5" fill="#1b1b1b" stroke="none"></circle></g></g></g><rect x="0" y="24" width="248" height="248" rx="8" fill="none" stroke="#e4e1dc"></rect><g transform="translate(0,289) scale(0.9375)"><circle cx="8" cy="8" r="6" fill="none" stroke="#6d6a65" stroke-width="1.2" opacity="0.55"></circle><circle cx="8" cy="8" r="1.4" fill="#6d6a65" opacity="0.85"></circle></g><text x="22" y="300" font-family="Inter, system-ui, -apple-system, sans-serif" font-size="14" fill="#1b1b1b">Situates in the city.</text></g><g transform="translate(536,0)"><text x="0" y="14" font-family="Inter, system-ui, -apple-system, sans-serif" font-size="12" font-weight="600" fill="#1b1b1b" style="font-variant:small-caps;letter-spacing:1.4px">neighborhood</text><text x="248" y="14" text-anchor="end" font-family="&#39;JetBrains Mono&#39;, ui-monospace, SFMono-Regular, monospace" font-size="10.5" fill="#6d6a65">≈ 4.5 km</text><g clip-path="url(#tc)"><g transform="translate(0,24) scale(2.48)"><rect x="0" y="0" width="100" height="100" fill="#fffefa"></rect><rect x="16" y="15" width="13" height="13" rx="0.8" fill="rgba(27,27,27,0.045)"></rect><rect x="16" y="32" width="13" height="15" rx="0.8" fill="rgba(27,27,27,0.045)"></rect><rect x="16" y="51" width="13" height="15" rx="0.8" fill="rgba(27,27,27,0.045)"></rect><rect x="16" y="70" width="13" height="14" rx="0.8" fill="rgba(27,27,27,0.045)"></rect><rect x="33" y="15" width="14" height="13" rx="0.8" fill="rgba(27,27,27,0.045)"></rect><rect x="33" y="32" width="14" height="15" rx="0.8" fill="rgba(27,27,27,0.045)"></rect><rect x="33" y="51" width="14" height="15" rx="0.8" fill="rgba(27,27,27,0.045)"></rect><rect x="33" y="70" width="14" height="14" rx="0.8" fill="rgba(27,27,27,0.045)"></rect><rect x="51" y="15" width="14" height="13" rx="0.8" fill="rgba(27,27,27,0.045)"></rect><rect x="51" y="32" width="14" height="15" rx="0.8" fill="rgba(27,27,27,0.045)"></rect><rect x="51" y="51" width="14" height="15" rx="0.8" fill="rgba(27,27,27,0.045)"></rect><rect x="51" y="70" width="14" height="14" rx="0.8" fill="rgba(27,27,27,0.045)"></rect><rect x="69" y="15" width="14" height="13" rx="0.8" fill="rgba(27,27,27,0.045)"></rect><rect x="69" y="32" width="14" height="15" rx="0.8" fill="rgba(27,27,27,0.045)"></rect><rect x="69" y="51" width="14" height="15" rx="0.8" fill="rgba(27,27,27,0.045)"></rect><rect x="69" y="70" width="14" height="14" rx="0.8" fill="rgba(27,27,27,0.045)"></rect><rect x="16" y="51" width="31" height="33" rx="2" fill="rgba(47,111,130,0.12)"></rect><line x1="14" y1="6" x2="12.4" y2="94" stroke="rgba(27,27,27,0.34)" stroke-width="0.8" opacity="0.75"></line><line x1="31" y1="6" x2="30.2" y2="94" stroke="rgba(27,27,27,0.34)" stroke-width="0.8" opacity="0.75"></line><line x1="49" y1="6" x2="49" y2="94" stroke="rgba(27,27,27,0.34)" stroke-width="0.8" opacity="0.75"></line><line x1="67" y1="6" x2="67.8" y2="94" stroke="rgba(27,27,27,0.34)" stroke-width="0.8" opacity="0.75"></line><line x1="85" y1="6" x2="86.6" y2="94" stroke="rgba(27,27,27,0.34)" stroke-width="0.8" opacity="0.75"></line><line x1="6" y1="13" x2="94" y2="11.6" stroke="rgba(27,27,27,0.34)" stroke-width="0.8" opacity="0.75"></line><line x1="6" y1="30" x2="94" y2="29.3" stroke="rgba(27,27,27,0.34)" stroke-width="0.8" opacity="0.75"></line><line x1="6" y1="49" x2="94" y2="49" stroke="rgba(27,27,27,0.34)" stroke-width="0.8" opacity="0.75"></line><line x1="6" y1="68" x2="94" y2="68.7" stroke="rgba(27,27,27,0.34)" stroke-width="0.8" opacity="0.75"></line><line x1="6" y1="86" x2="94" y2="87.4" stroke="rgba(27,27,27,0.34)" stroke-width="0.8" opacity="0.75"></line><rect x="0" y="0" width="100" height="100" fill="rgba(109,119,130,0.19)"></rect><g stroke="#1b1b1b" stroke-width="0.9" stroke-linecap="round">
<line x1="50" y1="42.5" x2="50" y2="47"></line><line x1="50" y1="53" x2="50" y2="57.5"></line>
<line x1="42.5" y1="50" x2="47" y2="50"></line><line x1="53" y1="50" x2="57.5" y2="50"></line>
<circle cx="50" cy="50" r="1.5" fill="#1b1b1b" stroke="none"></circle></g></g></g><rect x="0" y="24" width="248" height="248" rx="8" fill="none" stroke="#e4e1dc"></rect><rect x="160" y="32" width="80" height="16" rx="8" fill="rgba(255,254,250,0.85)" stroke="#e4e1dc"></rect><text x="200" y="43" text-anchor="middle" font-family="&#39;JetBrains Mono&#39;, ui-monospace, SFMono-Regular, monospace" font-size="9.5" fill="#6d6a65">beyond frame</text><g transform="translate(0,289) scale(0.9375)"><circle cx="8" cy="8" r="6" fill="none" stroke="rgba(109,106,101,0.65)" stroke-width="1.1" stroke-dasharray="1.6 1.8" opacity="0.7"></circle></g><text x="22" y="300" font-family="Inter, system-ui, -apple-system, sans-serif" font-size="14" fill="#6d6a65">Can’t place the district.</text></g><g transform="translate(804,0)"><text x="0" y="14" font-family="Inter, system-ui, -apple-system, sans-serif" font-size="12" font-weight="600" fill="#1b1b1b" style="font-variant:small-caps;letter-spacing:1.4px">street</text><text x="248" y="14" text-anchor="end" font-family="&#39;JetBrains Mono&#39;, ui-monospace, SFMono-Regular, monospace" font-size="10.5" fill="#6d6a65">≈ 450 m</text><g clip-path="url(#tc)"><g transform="translate(0,24) scale(2.48)"><rect x="0" y="0" width="100" height="100" fill="#fffefa"></rect><rect x="-2" y="44" width="104" height="12" fill="rgba(27,27,27,0.06)"></rect><rect x="45" y="-2" width="10" height="104" fill="rgba(27,27,27,0.06)"></rect><line x1="-2" y1="43" x2="102" y2="43" stroke="rgba(27,27,27,0.34)" stroke-width="0.5" opacity="0.6"></line><line x1="-2" y1="57" x2="102" y2="57" stroke="rgba(27,27,27,0.34)" stroke-width="0.5" opacity="0.6"></line><line x1="-2" y1="50" x2="102" y2="50" stroke="rgba(27,27,27,0.34)" stroke-width="0.5" stroke-dasharray="2.5 3" opacity="0.5"></line><rect x="10" y="24" width="11" height="15" rx="0.8" fill="rgba(27,27,27,0.045)" stroke="rgba(27,27,27,0.34)" stroke-width="0.5"></rect><rect x="24" y="24" width="11" height="15" rx="0.8" fill="rgba(27,27,27,0.045)" stroke="rgba(27,27,27,0.34)" stroke-width="0.5"></rect><rect x="38" y="24" width="11" height="15" rx="0.8" fill="rgba(27,27,27,0.045)" stroke="rgba(27,27,27,0.34)" stroke-width="0.5"></rect><rect x="60" y="24" width="11" height="15" rx="0.8" fill="rgba(27,27,27,0.045)" stroke="rgba(27,27,27,0.34)" stroke-width="0.5"></rect><rect x="74" y="24" width="11" height="15" rx="0.8" fill="rgba(27,27,27,0.045)" stroke="rgba(27,27,27,0.34)" stroke-width="0.5"></rect><rect x="88" y="24" width="11" height="15" rx="0.8" fill="rgba(27,27,27,0.045)" stroke="rgba(27,27,27,0.34)" stroke-width="0.5"></rect><rect x="12" y="62" width="12" height="16" rx="0.8" fill="rgba(27,27,27,0.045)" stroke="rgba(27,27,27,0.34)" stroke-width="0.5"></rect><rect x="27" y="62" width="12" height="16" rx="0.8" fill="rgba(27,27,27,0.045)" stroke="rgba(27,27,27,0.34)" stroke-width="0.5"></rect><rect x="50" y="62" width="12" height="16" rx="0.8" fill="rgba(27,27,27,0.045)" stroke="rgba(27,27,27,0.34)" stroke-width="0.5"></rect><rect x="64" y="62" width="12" height="16" rx="0.8" fill="rgba(27,27,27,0.045)" stroke="rgba(27,27,27,0.34)" stroke-width="0.5"></rect><rect x="79" y="62" width="12" height="16" rx="0.8" fill="rgba(27,27,27,0.045)" stroke="rgba(27,27,27,0.34)" stroke-width="0.5"></rect><rect x="0" y="0" width="100" height="100" fill="rgba(109,119,130,0.19)"></rect><g stroke="#1b1b1b" stroke-width="0.9" stroke-linecap="round">
<line x1="50" y1="42.5" x2="50" y2="47"></line><line x1="50" y1="53" x2="50" y2="57.5"></line>
<line x1="42.5" y1="50" x2="47" y2="50"></line><line x1="53" y1="50" x2="57.5" y2="50"></line>
<circle cx="50" cy="50" r="1.5" fill="#1b1b1b" stroke="none"></circle></g></g></g><rect x="0" y="24" width="248" height="248" rx="8" fill="none" stroke="#e4e1dc"></rect><rect x="160" y="32" width="80" height="16" rx="8" fill="rgba(255,254,250,0.85)" stroke="#e4e1dc"></rect><text x="200" y="43" text-anchor="middle" font-family="&#39;JetBrains Mono&#39;, ui-monospace, SFMono-Regular, monospace" font-size="9.5" fill="#6d6a65">beyond frame</text><g transform="translate(0,289) scale(0.9375)"><circle cx="8" cy="8" r="6" fill="none" stroke="rgba(109,106,101,0.65)" stroke-width="1.1" stroke-dasharray="1.6 1.8" opacity="0.7"></circle></g><text x="22" y="300" font-family="Inter, system-ui, -apple-system, sans-serif" font-size="14" fill="#6d6a65">Indistinguishable.</text></g><g transform="translate(1072,0)"><text x="0" y="14" font-family="Inter, system-ui, -apple-system, sans-serif" font-size="12" font-weight="600" fill="#1b1b1b" style="font-variant:small-caps;letter-spacing:1.4px">sidewalk</text><text x="248" y="14" text-anchor="end" font-family="&#39;JetBrains Mono&#39;, ui-monospace, SFMono-Regular, monospace" font-size="10.5" fill="#6d6a65">≈ 45 m</text><g clip-path="url(#tc)"><g transform="translate(0,24) scale(2.48)"><rect x="0" y="0" width="100" height="100" fill="#fffefa"></rect><rect x="14" y="10" width="54" height="30" rx="1.2" fill="rgba(27,27,27,0.045)" stroke="rgba(27,27,27,0.34)" stroke-width="0.7"></rect><line x1="14" y1="25" x2="68" y2="25" stroke="rgba(27,27,27,0.34)" stroke-width="0.4" opacity="0.5"></line><rect x="44" y="40" width="10" height="6" rx="0.6" fill="rgba(27,27,27,0.045)" stroke="rgba(27,27,27,0.34)" stroke-width="0.5"></rect><rect x="-2" y="52" width="104" height="13" fill="rgba(27,27,27,0.06)"></rect><line x1="-2" y1="52" x2="102" y2="52" stroke="rgba(27,27,27,0.34)" stroke-width="0.5" opacity="0.7"></line><line x1="-2" y1="65" x2="102" y2="65" stroke="rgba(27,27,27,0.34)" stroke-width="0.5" opacity="0.7"></line><line x1="10" y1="52" x2="10" y2="65" stroke="rgba(27,27,27,0.34)" stroke-width="0.35" opacity="0.4"></line><line x1="26" y1="52" x2="26" y2="65" stroke="rgba(27,27,27,0.34)" stroke-width="0.35" opacity="0.4"></line><line x1="42" y1="52" x2="42" y2="65" stroke="rgba(27,27,27,0.34)" stroke-width="0.35" opacity="0.4"></line><line x1="58" y1="52" x2="58" y2="65" stroke="rgba(27,27,27,0.34)" stroke-width="0.35" opacity="0.4"></line><line x1="74" y1="52" x2="74" y2="65" stroke="rgba(27,27,27,0.34)" stroke-width="0.35" opacity="0.4"></line><line x1="90" y1="52" x2="90" y2="65" stroke="rgba(27,27,27,0.34)" stroke-width="0.35" opacity="0.4"></line><rect x="-2" y="78" width="104" height="24" fill="rgba(27,27,27,0.06)" opacity="0.6"></rect><circle cx="22" cy="58.5" r="3" fill="rgba(47,111,130,0.12)" stroke="rgba(27,27,27,0.34)" stroke-width="0.4"></circle><circle cx="78" cy="58.5" r="1" fill="rgba(27,27,27,0.34)"></circle><rect x="0" y="0" width="100" height="100" fill="rgba(109,119,130,0.19)"></rect><g stroke="#1b1b1b" stroke-width="0.9" stroke-linecap="round">
<line x1="50" y1="42.5" x2="50" y2="47"></line><line x1="50" y1="53" x2="50" y2="57.5"></line>
<line x1="42.5" y1="50" x2="47" y2="50"></line><line x1="53" y1="50" x2="57.5" y2="50"></line>
<circle cx="50" cy="50" r="1.5" fill="#1b1b1b" stroke="none"></circle></g></g></g><rect x="0" y="24" width="248" height="248" rx="8" fill="none" stroke="#e4e1dc"></rect><rect x="160" y="32" width="80" height="16" rx="8" fill="rgba(255,254,250,0.85)" stroke="#e4e1dc"></rect><text x="200" y="43" text-anchor="middle" font-family="&#39;JetBrains Mono&#39;, ui-monospace, SFMono-Regular, monospace" font-size="9.5" fill="#6d6a65">beyond frame</text><g transform="translate(0,289) scale(0.9375)"><circle cx="8" cy="8" r="6" fill="none" stroke="rgba(109,106,101,0.65)" stroke-width="1.1" stroke-dasharray="1.6 1.8" opacity="0.7"></circle></g><text x="22" y="300" font-family="Inter, system-ui, -apple-system, sans-serif" font-size="14" fill="#6d6a65">Indistinguishable.</text></g>
<text x="0" y="348" font-family="Inter, system-ui, -apple-system, sans-serif" font-size="10.5" fill="#6d6a65" style="font-variant:small-caps;letter-spacing:1.5px">coarse</text><text x="1320" y="348" text-anchor="end" font-family="Inter, system-ui, -apple-system, sans-serif" font-size="10.5" fill="#6d6a65" style="font-variant:small-caps;letter-spacing:1.5px">fine</text><line x1="52" y1="344" x2="615" y2="344" stroke="url(#pg)" stroke-width="1"></line><line x1="705" y1="344" x2="1278" y2="344" stroke="url(#pg)" stroke-width="1"></line><path d="M1272,340.5 L1280,344 L1272,347.5" fill="none" stroke="#6d7782" stroke-width="1.2" stroke-linecap="round" stroke-linejoin="round"></path><text x="660" y="348" text-anchor="middle" font-family="Inter, system-ui, -apple-system, sans-serif" font-size="12" fill="#1b1b1b" style="font-variant:small-caps;letter-spacing:2.4px">precision</text>
</svg>